<?xml version='1.0' encoding='utf-8'?>
<svg xmlns="http://www.w3.org/2000/svg" viewBox="0 0 800 800"> <defs> <style>.a{fill:none;}.b{fill:#1c8adb;}.c{clip-path:url(#a);}.d{opacity:0.42;fill:url(#b);}.e{fill:#fff;}</style> <clipPath id="a"> <circle class="a" cx="400" cy="400" r="400"/> </clipPath> <linearGradient id="b" x1="420.61" x2="162.24" y1="378.83" y2="637.19" gradientUnits="userSpaceOnUse"> <stop offset="0"/> <stop stop-opacity="0" offset="1"/> </linearGradient> </defs> <circle class="b" cx="400" cy="400" r="400"/> <g class="c"> <path class="d" d="M289.25,792.25l249-249a18.44,18.44,0,0,0,6.23-13.82v-260a18.51,18.51,0,0,0-18.5-18.5H274a18.46,18.46,0,0,0-13.82,6.23L8.35,509C35.28,657.81,125.5,755,289.25,792.25Z"/> <path class="e" d="m367.61 294.58-7.17-7.17a1.64 1.64 0 0 0-2.3 0l-5.5 5.51a4.79 4.79 0 0 0-4.64-3.72h-52.65a3.19 3.19 0 0 0-3.19 3.2v54.21a3.19 3.19 0 0 0 3.19 3.19h54.22a3.19 3.19 0 0 0 3.19-3.19v-34.87l14.85-14.86a1.62 1.62 0 0 0 0-2.3zm-22.78 48.92h-44.74a1.63 1.63 0 0 1-1.63-1.63v-44.73a1.63 1.63 0 0 1 1.63-1.63h44.74a1.62 1.62 0 0 1 1.62 1.63v2l-23.31 23.31-13.14-13.22a1.64 1.64 0 0 0-2.3 0l-7.17 7.18a1.62 1.62 0 0 0 0 2.3l21.46 21.46a1.64 1.64 0 0 0 2.3 0l22.17-22.17v23.83a1.62 1.62 0 0 1-1.63 1.67z"/> <path class="e" d="m367.61 375.65-7.17-7.17a1.62 1.62 0 0 0-2.3 0l-5.5 5.5a4.79 4.79 0 0 0-4.66-3.71h-52.63a3.19 3.19 0 0 0-3.19 3.19v54.21a3.19 3.19 0 0 0 3.19 3.2h54.22a3.19 3.19 0 0 0 3.19-3.2v-34.87l14.85-14.8a1.62 1.62 0 0 0 0-2.35zm-22.78 48.91h-44.74a1.63 1.63 0 0 1-1.63-1.62v-44.74a1.63 1.63 0 0 1 1.63-1.63h44.74a1.62 1.62 0 0 1 1.62 1.63v2l-23.31 23.32-13.14-13.22a1.62 1.62 0 0 0-2.3 0l-7.17 7.17a1.62 1.62 0 0 0 0 2.3l21.5 21.5a1.62 1.62 0 0 0 2.3 0l22.17-22.17v23.83a1.62 1.62 0 0 1-1.67 1.63z"/> <path class="e" d="m367.61 456.71-7.17-7.17a1.62 1.62 0 0 0-2.3 0l-5.5 5.5a4.79 4.79 0 0 0-4.66-3.71h-52.63a3.19 3.19 0 0 0-3.19 3.19v54.22a3.19 3.19 0 0 0 3.19 3.19h54.22a3.19 3.19 0 0 0 3.19-3.19v-34.88l14.85-14.86a1.62 1.62 0 0 0 0-2.29zm-22.78 48.92h-44.74a1.63 1.63 0 0 1-1.63-1.63v-44.74a1.63 1.63 0 0 1 1.63-1.63h44.74a1.62 1.62 0 0 1 1.62 1.63v2l-23.31 23.32-13.14-13.22a1.62 1.62 0 0 0-2.3 0l-7.17 7.17a1.62 1.62 0 0 0 0 2.3l21.5 21.5a1.62 1.62 0 0 0 2.3 0l22.17-22.17v23.84a1.62 1.62 0 0 1-1.67 1.63z"/> <path class="e" d="m526 547.93h-252a18.5 18.5 0 0 1-18.5-18.5v-260a18.51 18.51 0 0 1 18.5-18.5h252a18.51 18.51 0 0 1 18.5 18.5v260a18.5 18.5 0 0 1-18.5 18.5zm-241.48-21h231a8 8 0 0 0 8-8v-239a8 8 0 0 0-8-8h-231a8 8 0 0 0-8 8v239a8 8 0 0 0 7.99 8z"/> </g> </svg>