<?xml version='1.0' encoding='utf-8'?>
<svg xmlns="http://www.w3.org/2000/svg" viewBox="0 0 800 800"> <defs> <clipPath id="a"> <circle cx="400" cy="400" r="400" fill="none"/> </clipPath> <linearGradient id="b" x1="646.17" x2="188.06" y1="213.96" y2="672.07" gradientUnits="userSpaceOnUse"> <stop offset="0"/> <stop stop-opacity="0" offset="1"/> </linearGradient> </defs> <circle cx="400" cy="400" r="400" fill="#1c8adb"/> <g clip-path="url(#a)"> <path d="M329,796,559.1,565.9c0-.8.1-1.7.1-2.5,0-58.4-28.4-112.6-75-143.5a124.086,124.086,0,0,1-60.625,30.627L563.9,310.3a9.68,9.68,0,0,0,2.6-6.9,10.1,10.1,0,0,0-2.6-7c-1.7-1.9-4.2-2.8-7.5-2.8s-5.8.9-7.5,2.8c-.623.7-59.618,60.317-59.618,60.317a92.975,92.975,0,0,0,3.023-12.059L563.9,274.2c0-9.065,2.107-16.023,6.38-21l2.031-2.011c.15-.158.289-.316.438-.475l3.706-3.669c.151-.159.29-.317.438-.475l3.707-3.67c9.9-10.4,14.9-20.9,14.9-31.6,0-10.8-3.2-19.3-9.7-25.5q-9.6-9.3-27-9.3c-11.1,0-20.2,3-27.1,9.1l-70.907,70.875a93.775,93.775,0,0,0-129.154,7.209L16.661,578.661C81.843,693.405,178.872,773.547,329,796Z" fill="url(#b)" opacity=".42"/> <circle cx="400" cy="327.9" r="93.8" fill="#fff"/> <path d="M484.2,419.9a124.334,124.334,0,0,1-168.4.1c-46.6,30.9-75,85.1-75,143.4,0,.8.1,1.7.1,2.5H559.1c0-.8.1-1.7.1-2.5C559.2,505,530.8,450.8,484.2,419.9Z" fill="#fff"/> <path d="m585.8 185.8q-9.6-9.3-27-9.3c-11.1 0-20.2 3-27.1 9.1s-10.5 14.1-10.6 24h17c0-5.6 1.9-10 5.7-13.3s8.9-5 15.1-5c6.4 0 11.3 1.9 14.7 5.5 3.4 3.7 5.1 8.7 5.1 15.1 0 6.7-2.6 12.9-7.7 18.7l-12 12.4c-4.7 5.1-7.9 9.8-9.4 14-1.6 4.2-2.4 9.9-2.5 17.2h16.8c0-9.3 2.2-16.4 6.7-21.4l10-9.9c9.9-10.4 14.9-20.9 14.9-31.6 0-10.8-3.2-19.3-9.7-25.5z" fill="#fff"/> <path d="m556.4 293.6c-3.3 0-5.8 0.9-7.5 2.8a10.024 10.024 0 0 0-2.5 7 9.611 9.611 0 0 0 2.5 6.9q2.55 2.7 7.5 2.7t7.5-2.7a9.68 9.68 0 0 0 2.6-6.9 10.1 10.1 0 0 0-2.6-7c-1.7-1.9-4.2-2.8-7.5-2.8z" fill="#fff"/> </g> </svg>